[17:54:40.102] [run01] Starting serial run 1
[17:55:29.870] [run01] CPU mismatch (got 'Intel(R) Xeon(R) Platinum 8124M CPU @ 3.00GHz', want 'Intel(R) Xeon(R) Platinum 8275CL CPU @ 3.00GHz') — terminating & retrying (attempt 1)
[17:56:19.443] [run01] CPU OK: Intel(R) Xeon(R) Platinum 8275CL CPU @ 3.00GHz
[18:03:13.413] [run01] Run 1 OK — Total: 512.72s  (provision: 99.1s  s3_dl: 1.1s  encode: 412.5s)
[18:03:14.384] [run01] Instance terminated.
[18:03:14.386] [run02] Starting serial run 2
[18:04:03.759] [run02] CPU OK: Intel(R) Xeon(R) Platinum 8275CL CPU @ 3.00GHz
[18:10:08.931] [run02] Run 2 OK — Total: 414.17s  (provision: 49.4s  s3_dl: 1.1s  encode: 363.7s)
[18:10:09.903] [run02] Instance terminated.
[18:10:09.904] [run03] Starting serial run 3
[18:10:59.359] [run03] CPU OK: Intel(R) Xeon(R) Platinum 8275CL CPU @ 3.00GHz
[18:16:28.996] [run03] Run 3 OK — Total: 378.71s  (provision: 49.4s  s3_dl: 1.1s  encode: 328.2s)
[18:16:29.993] [run03] Instance terminated.
[18:16:29.996] [run04] Starting serial run 4
[18:17:19.324] [run04] CPU OK: Intel(R) Xeon(R) Platinum 8275CL CPU @ 3.00GHz
[18:23:10.524] [run04] Run 4 OK — Total: 400.12s  (provision: 49.3s  s3_dl: 1.0s  encode: 349.8s)
[18:23:11.530] [run04] Instance terminated.
[18:23:11.532] [run05] Starting serial run 5
[18:24:00.807] [run05] CPU OK: Intel(R) Xeon(R) Platinum 8275CL CPU @ 3.00GHz
[18:26:14.825] [run05] Run 5 ERROR: ffmpeg failed: .69x    frame= 3322 fps= 25 q=0.4 size=   38912kB time=00:03:41.50 bitrate=1439.1kbits/s speed=1.69x    frame= 3335 fps= 25 q=1.8 size=   39168kB time=00:03:42.33 bitrate=1443.2kbits/s speed=1.69x    frame= 3345 fps= 25 q=0.0 size=   39168kB time=00:03:43.08 bitrate=1438.3kbits/s speed=1.69x    
[18:26:15.774] [run05] Instance terminated.
[18:26:15.781] [run06] Starting serial run 6
[18:27:05.113] [run06] CPU OK: Intel(R) Xeon(R) Platinum 8275CL CPU @ 3.00GHz
[18:33:56.288] [run06] Run 6 OK — Total: 460.08s  (provision: 49.3s  s3_dl: 1.1s  encode: 409.7s)
[18:33:57.248] [run06] Instance terminated.
[18:33:57.251] [run07] Starting serial run 7
[18:34:46.622] [run07] CPU OK: Intel(R) Xeon(R) Platinum 8275CL CPU @ 3.00GHz
[18:40:19.622] [run07] Run 7 OK — Total: 381.96s  (provision: 49.4s  s3_dl: 0.9s  encode: 331.7s)
[18:40:20.575] [run07] Instance terminated.
[18:40:20.577] [run08] Starting serial run 8
[18:41:09.862] [run08] CPU OK: Intel(R) Xeon(R) Platinum 8275CL CPU @ 3.00GHz
[18:47:52.967] [run08] Run 8 OK — Total: 452.00s  (provision: 49.3s  s3_dl: 1.0s  encode: 401.7s)
[18:47:53.926] [run08] Instance terminated.
[18:47:53.928] [run09] Starting serial run 9
[18:48:43.206] [run09] CPU OK: Intel(R) Xeon(R) Platinum 8275CL CPU @ 3.00GHz
